<?xml version="1.0" encoding="UTF-8"?>
<svg width="256" height="256" viewBox="0 0 256 256" xmlns="http://www.w3.org/2000/svg">
  <!-- Background circle -->
  <circle cx="128" cy="128" r="120" fill="#4A90E2" stroke="#2E5C8A" stroke-width="4"/>
  
  <!-- Terminal/console representation -->
  <rect x="48" y="68" width="160" height="120" rx="8" fill="#2C3E50" stroke="#34495E" stroke-width="2"/>
  
  <!-- Terminal window header -->
  <rect x="48" y="68" width="160" height="20" rx="8" fill="#34495E"/>
  
  <!-- Terminal window buttons -->
  <circle cx="68" cy="78" r="4" fill="#E74C3C"/>
  <circle cx="88" cy="78" r="4" fill="#F39C12"/>
  <circle cx="108" cy="78" r="4" fill="#27AE60"/>
  
  <!-- Terminal text lines -->
  <rect x="58" y="100" width="80" height="4" rx="2" fill="#ECF0F1"/>
  <rect x="58" y="110" width="60" height="4" rx="2" fill="#ECF0F1"/>
  <rect x="58" y="120" width="90" height="4" rx="2" fill="#ECF0F1"/>
  <rect x="58" y="130" width="70" height="4" rx="2" fill="#ECF0F1"/>
  <rect x="58" y="140" width="50" height="4" rx="2" fill="#ECF0F1"/>
  <rect x="58" y="150" width="100" height="4" rx="2" fill="#ECF0F1"/>
  <rect x="58" y="160" width="40" height="4" rx="2" fill="#ECF0F1"/>
  
  <!-- Cursor -->
  <rect x="58" y="170" width="8" height="4" rx="2" fill="#E74C3C"/>
  
  <!-- Network/proxy symbols -->
  <circle cx="180" cy="100" r="12" fill="#3498DB" opacity="0.8"/>
  <circle cx="200" cy="120" r="8" fill="#9B59B6" opacity="0.8"/>
  <circle cx="190" cy="140" r="10" fill="#E67E22" opacity="0.8"/>
  
  <!-- Connection lines -->
  <line x1="180" y1="100" x2="200" y2="120" stroke="#95A5A6" stroke-width="2" opacity="0.6"/>
  <line x1="200" y1="120" x2="190" y2="140" stroke="#95A5A6" stroke-width="2" opacity="0.6"/>
  <line x1="190" y1="140" x2="180" y2="100" stroke="#95A5A6" stroke-width="2" opacity="0.6"/>
</svg> 